<svg width="127" height="52" viewBox="0 0 127 52" fill="none" xmlns="http://www.w3.org/2000/svg">
<rect width="127" height="52" rx="26" fill="#BCEC30"/>
<path d="M35.9199 24.7051V26.085H28.9941V24.7051H35.9199ZM29.2578 19.2031V32H27.5615V19.2031H29.2578ZM37.3965 19.2031V32H35.709V19.2031H37.3965ZM45.7725 30.374V25.4785C45.7725 25.1035 45.6963 24.7783 45.5439 24.5029C45.3975 24.2217 45.1748 24.0049 44.876 23.8525C44.5771 23.7002 44.208 23.624 43.7686 23.624C43.3584 23.624 42.998 23.6943 42.6875 23.835C42.3828 23.9756 42.1426 24.1602 41.9668 24.3887C41.7969 24.6172 41.7119 24.8633 41.7119 25.127H40.0859C40.0859 24.7871 40.1738 24.4502 40.3496 24.1162C40.5254 23.7822 40.7773 23.4805 41.1055 23.2109C41.4395 22.9355 41.8379 22.7188 42.3008 22.5605C42.7695 22.3965 43.291 22.3145 43.8652 22.3145C44.5566 22.3145 45.166 22.4316 45.6934 22.666C46.2266 22.9004 46.6426 23.2549 46.9414 23.7295C47.2461 24.1982 47.3984 24.7871 47.3984 25.4961V29.9258C47.3984 30.2422 47.4248 30.5791 47.4775 30.9365C47.5361 31.2939 47.6211 31.6016 47.7324 31.8594V32H46.0361C45.9541 31.8125 45.8896 31.5635 45.8428 31.2529C45.7959 30.9365 45.7725 30.6436 45.7725 30.374ZM46.0537 26.2344L46.0713 27.377H44.4277C43.9648 27.377 43.5518 27.415 43.1885 27.4912C42.8252 27.5615 42.5205 27.6699 42.2744 27.8164C42.0283 27.9629 41.8408 28.1475 41.7119 28.3701C41.583 28.5869 41.5186 28.8418 41.5186 29.1348C41.5186 29.4336 41.5859 29.7061 41.7207 29.9521C41.8555 30.1982 42.0576 30.3945 42.3271 30.541C42.6025 30.6816 42.9395 30.752 43.3379 30.752C43.8359 30.752 44.2754 30.6465 44.6562 30.4355C45.0371 30.2246 45.3389 29.9668 45.5615 29.6621C45.79 29.3574 45.9131 29.0615 45.9307 28.7744L46.625 29.5566C46.584 29.8027 46.4727 30.0752 46.291 30.374C46.1094 30.6729 45.8662 30.96 45.5615 31.2354C45.2627 31.5049 44.9053 31.7305 44.4893 31.9121C44.0791 32.0879 43.6162 32.1758 43.1006 32.1758C42.4561 32.1758 41.8906 32.0498 41.4043 31.7979C40.9238 31.5459 40.5488 31.209 40.2793 30.7871C40.0156 30.3594 39.8838 29.8818 39.8838 29.3545C39.8838 28.8447 39.9834 28.3965 40.1826 28.0098C40.3818 27.6172 40.6689 27.292 41.0439 27.0342C41.4189 26.7705 41.8701 26.5713 42.3975 26.4365C42.9248 26.3018 43.5137 26.2344 44.1641 26.2344H46.0537ZM54.4209 27.8164H51.3008L51.2832 26.5156H53.832C54.3359 26.5156 54.7549 26.4658 55.0889 26.3662C55.4287 26.2666 55.6836 26.1172 55.8535 25.918C56.0234 25.7188 56.1084 25.4727 56.1084 25.1797C56.1084 24.9512 56.0586 24.752 55.959 24.582C55.8652 24.4062 55.7217 24.2627 55.5283 24.1514C55.335 24.0342 55.0947 23.9492 54.8076 23.8965C54.5264 23.8379 54.1953 23.8086 53.8145 23.8086H51.7314V32H50.1055V22.4902H53.8145C54.418 22.4902 54.96 22.543 55.4404 22.6484C55.9268 22.7539 56.3398 22.915 56.6797 23.1318C57.0254 23.3428 57.2891 23.6123 57.4707 23.9404C57.6523 24.2686 57.7432 24.6553 57.7432 25.1006C57.7432 25.3877 57.6846 25.6602 57.5674 25.918C57.4502 26.1758 57.2773 26.4043 57.0488 26.6035C56.8203 26.8027 56.5391 26.9668 56.2051 27.0957C55.8711 27.2188 55.4873 27.2979 55.0537 27.333L54.4209 27.8164ZM54.4209 32H50.7119L51.5205 30.6816H54.4209C54.8721 30.6816 55.2471 30.626 55.5459 30.5146C55.8447 30.3975 56.0674 30.2334 56.2139 30.0225C56.3662 29.8057 56.4424 29.5479 56.4424 29.249C56.4424 28.9502 56.3662 28.6953 56.2139 28.4844C56.0674 28.2676 55.8447 28.1035 55.5459 27.9922C55.2471 27.875 54.8721 27.8164 54.4209 27.8164H51.9512L51.9688 26.5156H55.0537L55.6426 27.0078C56.1641 27.0488 56.6064 27.1777 56.9697 27.3945C57.333 27.6113 57.6084 27.8867 57.7959 28.2207C57.9834 28.5488 58.0771 28.9062 58.0771 29.293C58.0771 29.7383 57.9922 30.1309 57.8223 30.4707C57.6582 30.8105 57.418 31.0947 57.1016 31.3232C56.7852 31.5459 56.4014 31.7158 55.9502 31.833C55.499 31.9443 54.9893 32 54.4209 32ZM64.2031 32.1758C63.541 32.1758 62.9404 32.0645 62.4014 31.8418C61.8682 31.6133 61.4082 31.2939 61.0215 30.8838C60.6406 30.4736 60.3477 29.9873 60.1426 29.4248C59.9375 28.8623 59.835 28.2471 59.835 27.5791V27.21C59.835 26.4365 59.9492 25.748 60.1777 25.1445C60.4062 24.5352 60.7168 24.0195 61.1094 23.5977C61.502 23.1758 61.9473 22.8564 62.4453 22.6396C62.9434 22.4229 63.459 22.3145 63.9922 22.3145C64.6719 22.3145 65.2578 22.4316 65.75 22.666C66.248 22.9004 66.6553 23.2285 66.9717 23.6504C67.2881 24.0664 67.5225 24.5586 67.6748 25.127C67.8271 25.6895 67.9033 26.3047 67.9033 26.9727V27.7021H60.8018V26.375H66.2773V26.252C66.2539 25.8301 66.166 25.4199 66.0137 25.0215C65.8672 24.623 65.6328 24.2949 65.3105 24.0371C64.9883 23.7793 64.5488 23.6504 63.9922 23.6504C63.623 23.6504 63.2832 23.7295 62.9727 23.8877C62.6621 24.04 62.3955 24.2686 62.1729 24.5732C61.9502 24.8779 61.7773 25.25 61.6543 25.6895C61.5312 26.1289 61.4697 26.6357 61.4697 27.21V27.5791C61.4697 28.0303 61.5312 28.4551 61.6543 28.8535C61.7832 29.2461 61.9678 29.5918 62.208 29.8906C62.4541 30.1895 62.75 30.4238 63.0957 30.5938C63.4473 30.7637 63.8457 30.8486 64.291 30.8486C64.8652 30.8486 65.3516 30.7314 65.75 30.4971C66.1484 30.2627 66.4971 29.9492 66.7959 29.5566L67.7803 30.3389C67.5752 30.6494 67.3145 30.9453 66.998 31.2266C66.6816 31.5078 66.292 31.7363 65.8291 31.9121C65.3721 32.0879 64.8301 32.1758 64.2031 32.1758ZM71.4277 24.3184V35.6562H69.793V22.4902H71.2871L71.4277 24.3184ZM77.835 27.166V27.3506C77.835 28.042 77.7529 28.6836 77.5889 29.2754C77.4248 29.8613 77.1846 30.3711 76.8682 30.8047C76.5576 31.2383 76.1738 31.5752 75.7168 31.8154C75.2598 32.0557 74.7354 32.1758 74.1436 32.1758C73.54 32.1758 73.0068 32.0762 72.5439 31.877C72.0811 31.6777 71.6885 31.3877 71.3662 31.0068C71.0439 30.626 70.7861 30.1689 70.5928 29.6357C70.4053 29.1025 70.2764 28.502 70.2061 27.834V26.8496C70.2764 26.1465 70.4082 25.5166 70.6016 24.96C70.7949 24.4033 71.0498 23.9287 71.3662 23.5361C71.6885 23.1377 72.0781 22.8359 72.5352 22.6309C72.9922 22.4199 73.5195 22.3145 74.1172 22.3145C74.7148 22.3145 75.2451 22.4316 75.708 22.666C76.1709 22.8945 76.5605 23.2227 76.877 23.6504C77.1934 24.0781 77.4307 24.5908 77.5889 25.1885C77.7529 25.7803 77.835 26.4395 77.835 27.166ZM76.2002 27.3506V27.166C76.2002 26.6914 76.1504 26.2461 76.0508 25.8301C75.9512 25.4082 75.7959 25.0391 75.585 24.7227C75.3799 24.4004 75.1162 24.1484 74.7939 23.9668C74.4717 23.7793 74.0879 23.6855 73.6426 23.6855C73.2324 23.6855 72.875 23.7559 72.5703 23.8965C72.2715 24.0371 72.0166 24.2275 71.8057 24.4678C71.5947 24.7021 71.4219 24.9717 71.2871 25.2764C71.1582 25.5752 71.0615 25.8857 70.9971 26.208V28.4844C71.1143 28.8945 71.2783 29.2812 71.4893 29.6445C71.7002 30.002 71.9814 30.292 72.333 30.5146C72.6846 30.7314 73.127 30.8398 73.6602 30.8398C74.0996 30.8398 74.4775 30.749 74.7939 30.5674C75.1162 30.3799 75.3799 30.125 75.585 29.8027C75.7959 29.4805 75.9512 29.1113 76.0508 28.6953C76.1504 28.2734 76.2002 27.8252 76.2002 27.3506ZM80.8672 22.4902L82.9502 25.9531L85.0596 22.4902H86.9668L83.8555 27.1836L87.0635 32H85.1826L82.9854 28.4316L80.7881 32H78.8984L82.0977 27.1836L78.9951 22.4902H80.8672ZM96.0458 32V21.506C95.6618 21.83 95.0858 22.178 94.3178 22.55V21.92C94.7618 21.536 95.1458 21.146 95.4698 20.75C95.7938 20.354 96.0578 19.952 96.2618 19.544H96.5858C96.7898 19.952 97.0538 20.354 97.3778 20.75C97.7018 21.146 98.0858 21.536 98.5298 21.92V22.55C98.1578 22.37 97.8278 22.196 97.5398 22.028C97.2518 21.848 97.0058 21.674 96.8018 21.506V32H96.0458Z" fill="black"/>
</svg>
